<svg id="visual" viewBox="0 0 1920 1080" width="1920" height="1080" xmlns="http://www.w3.org/2000/svg" xmlns:xlink="http://www.w3.org/1999/xlink" version="1.1"><rect x="0" y="0" width="1920" height="1080" fill="#ffffff"></rect><defs><linearGradient id="grad1_0" x1="43.8%" y1="0%" x2="100%" y2="100%"><stop offset="14.444444444444446%" stop-color="#ffffff" stop-opacity="1"></stop><stop offset="85.55555555555554%" stop-color="#ffffff" stop-opacity="1"></stop></linearGradient></defs><defs><linearGradient id="grad2_0" x1="0%" y1="0%" x2="56.3%" y2="100%"><stop offset="14.444444444444446%" stop-color="#ffffff" stop-opacity="1"></stop><stop offset="85.55555555555554%" stop-color="#ffffff" stop-opacity="1"></stop></linearGradient></defs><g transform="translate(1920, 0)"><path d="M0 972C-110.6 914.9 -221.3 857.7 -337.9 815.8C-454.5 773.9 -577.2 747.2 -676.7 676.7C-776.2 606.2 -852.6 492 -898 372C-943.4 251.9 -957.7 125.9 -972 0L0 0Z" fill="#f0daff"></path></g><g transform="translate(0, 1080)"><path d="M0 -972C95.6 -885.2 191.2 -798.4 316.9 -765C442.5 -731.6 598.2 -751.6 687.3 -687.3C776.4 -623.1 798.8 -474.5 835.2 -345.9C871.5 -217.4 921.8 -108.7 972 0L0 0Z" fill="#f0daff"></path></g></svg>